<mxfile host="65bd71144e">
    <diagram id="LEKlvEXjB8CjpZRd03aT" name="PÃ¡gina-1">
        <mxGraphModel dx="857" dy="472" grid="1" gridSize="10" guides="1" tooltips="1" connect="1" arrows="1" fold="1" page="1" pageScale="1" pageWidth="827" pageHeight="1169" math="0" shadow="0">
            <root>
                <mxCell id="0"/>
                <mxCell id="1" parent="0"/>
                <mxCell id="5" style="edgeStyle=none;html=1;entryX=0.5;entryY=0;entryDx=0;entryDy=0;fontFamily=Helvetica;" parent="1" source="3" target="4" edge="1">
                    <mxGeometry relative="1" as="geometry"/>
                </mxCell>
                <mxCell id="3" value="&lt;h1&gt;Ej1&lt;/h1&gt;" style="ellipse;whiteSpace=wrap;html=1;" parent="1" vertex="1">
                    <mxGeometry x="290" y="20" width="280" height="70" as="geometry"/>
                </mxCell>
                <mxCell id="7" style="edgeStyle=none;html=1;entryX=0.5;entryY=0;entryDx=0;entryDy=0;fontFamily=Helvetica;" parent="1" source="4" target="6" edge="1">
                    <mxGeometry relative="1" as="geometry"/>
                </mxCell>
                <mxCell id="4" value="int valorA=0, valorB=0;" style="rounded=0;whiteSpace=wrap;html=1;fontFamily=Helvetica;" parent="1" vertex="1">
                    <mxGeometry x="370" y="120" width="120" height="40" as="geometry"/>
                </mxCell>
                <mxCell id="9" style="edgeStyle=none;html=1;fontFamily=Helvetica;" parent="1" source="6" target="8" edge="1">
                    <mxGeometry relative="1" as="geometry"/>
                </mxCell>
                <mxCell id="6" value="leer(&quot;Ingrese un valor entero&quot;, valorA)" style="rounded=0;whiteSpace=wrap;html=1;fontFamily=Helvetica;" parent="1" vertex="1">
                    <mxGeometry x="350" y="190" width="160" height="40" as="geometry"/>
                </mxCell>
                <mxCell id="21" style="edgeStyle=none;html=1;entryX=0.5;entryY=0;entryDx=0;entryDy=0;fontFamily=Helvetica;" parent="1" source="8" target="12" edge="1">
                    <mxGeometry relative="1" as="geometry"/>
                </mxCell>
                <mxCell id="8" value="leer(&quot;Ingrese un valor entero&quot;, valorB)" style="rounded=0;whiteSpace=wrap;html=1;fontFamily=Helvetica;" parent="1" vertex="1">
                    <mxGeometry x="350" y="250" width="160" height="40" as="geometry"/>
                </mxCell>
                <mxCell id="11" value="" style="group;fontFamily=Helvetica;" parent="1" vertex="1" connectable="0">
                    <mxGeometry x="370" y="297" width="220" height="43" as="geometry"/>
                </mxCell>
                <mxCell id="12" value="&quot;Suma &quot;, suma(valorA, valorB)" style="shape=parallelogram;perimeter=parallelogramPerimeter;whiteSpace=wrap;html=1;fixedSize=1;fontFamily=Helvetica;" parent="11" vertex="1">
                    <mxGeometry x="-52.60869565217393" y="13" width="220" height="30" as="geometry"/>
                </mxCell>
                <mxCell id="13" value="" style="endArrow=classic;html=1;exitX=0.875;exitY=0.067;exitDx=0;exitDy=0;exitPerimeter=0;fontFamily=Helvetica;" parent="11" edge="1">
                    <mxGeometry width="50" height="50" relative="1" as="geometry">
                        <mxPoint x="96.60869565217392" y="22.00999999999999" as="sourcePoint"/>
                        <mxPoint x="110.95652173913047" as="targetPoint"/>
                    </mxGeometry>
                </mxCell>
                <mxCell id="45" style="edgeStyle=none;html=1;fontFamily=Helvetica;" parent="1" source="16" target="43" edge="1">
                    <mxGeometry relative="1" as="geometry"/>
                </mxCell>
                <mxCell id="16" value="producto(int A, int B)" style="rounded=0;whiteSpace=wrap;html=1;fontFamily=Helvetica;" parent="1" vertex="1">
                    <mxGeometry x="650" y="470" width="160" height="30" as="geometry"/>
                </mxCell>
                <mxCell id="22" value="" style="group;fontFamily=Helvetica;" parent="1" vertex="1" connectable="0">
                    <mxGeometry x="380" y="353" width="150" height="43" as="geometry"/>
                </mxCell>
                <mxCell id="23" value="&quot;Resta &quot;, resta(valorA, valorB)" style="shape=parallelogram;perimeter=parallelogramPerimeter;whiteSpace=wrap;html=1;fixedSize=1;fontFamily=Helvetica;" parent="22" vertex="1">
                    <mxGeometry x="-65.625" y="13" width="215.625" height="30" as="geometry"/>
                </mxCell>
                <mxCell id="24" value="" style="endArrow=classic;html=1;exitX=0.875;exitY=0.067;exitDx=0;exitDy=0;exitPerimeter=0;fontFamily=Helvetica;" parent="22" edge="1">
                    <mxGeometry width="50" height="50" relative="1" as="geometry">
                        <mxPoint x="94.6875" y="22.00999999999999" as="sourcePoint"/>
                        <mxPoint x="108.75" as="targetPoint"/>
                    </mxGeometry>
                </mxCell>
                <mxCell id="25" style="edgeStyle=none;html=1;entryX=0.522;entryY=0.233;entryDx=0;entryDy=0;entryPerimeter=0;fontFamily=Helvetica;" parent="1" source="12" target="23" edge="1">
                    <mxGeometry relative="1" as="geometry"/>
                </mxCell>
                <mxCell id="26" value="" style="group;fontFamily=Helvetica;" parent="1" vertex="1" connectable="0">
                    <mxGeometry x="350" y="410" width="270" height="43" as="geometry"/>
                </mxCell>
                <mxCell id="27" value="&quot;Producto &quot;, producto(valorA, valorB)" style="shape=parallelogram;perimeter=parallelogramPerimeter;whiteSpace=wrap;html=1;fixedSize=1;fontFamily=Helvetica;" parent="26" vertex="1">
                    <mxGeometry x="-64.56521739130437" y="13" width="270.00000000000006" height="30" as="geometry"/>
                </mxCell>
                <mxCell id="28" value="" style="endArrow=classic;html=1;exitX=0.875;exitY=0.067;exitDx=0;exitDy=0;exitPerimeter=0;fontFamily=Helvetica;" parent="26" edge="1">
                    <mxGeometry width="50" height="50" relative="1" as="geometry">
                        <mxPoint x="118.56521739130437" y="22.00999999999999" as="sourcePoint"/>
                        <mxPoint x="136.17391304347834" as="targetPoint"/>
                    </mxGeometry>
                </mxCell>
                <mxCell id="29" style="edgeStyle=none;html=1;fontFamily=Helvetica;" parent="1" source="23" target="27" edge="1">
                    <mxGeometry relative="1" as="geometry"/>
                </mxCell>
                <mxCell id="33" style="edgeStyle=none;html=1;fontFamily=Helvetica;" parent="1" source="30" target="32" edge="1">
                    <mxGeometry relative="1" as="geometry"/>
                </mxCell>
                <mxCell id="30" value="&lt;span&gt;suma(int A, int B)&lt;/span&gt;" style="rounded=0;whiteSpace=wrap;html=1;fontFamily=Helvetica;" parent="1" vertex="1">
                    <mxGeometry x="650" y="120" width="160" height="30" as="geometry"/>
                </mxCell>
                <mxCell id="41" style="edgeStyle=none;html=1;fontFamily=Helvetica;" parent="1" source="31" target="39" edge="1">
                    <mxGeometry relative="1" as="geometry"/>
                </mxCell>
                <mxCell id="31" value="&lt;span&gt;resta(int A, int B)&lt;/span&gt;" style="rounded=0;whiteSpace=wrap;html=1;fontFamily=Helvetica;" parent="1" vertex="1">
                    <mxGeometry x="650" y="290" width="160" height="30" as="geometry"/>
                </mxCell>
                <mxCell id="35" style="edgeStyle=none;html=1;fontFamily=Helvetica;" parent="1" source="32" target="34" edge="1">
                    <mxGeometry relative="1" as="geometry"/>
                </mxCell>
                <mxCell id="32" value="int resultado=0;" style="rounded=0;whiteSpace=wrap;html=1;fontFamily=Helvetica;" parent="1" vertex="1">
                    <mxGeometry x="670" y="170" width="120" height="30" as="geometry"/>
                </mxCell>
                <mxCell id="34" value="resultado=A+B" style="rounded=0;whiteSpace=wrap;html=1;fontFamily=Helvetica;" parent="1" vertex="1">
                    <mxGeometry x="670" y="230" width="120" height="30" as="geometry"/>
                </mxCell>
                <mxCell id="36" value="&lt;h1&gt;FinEj1&lt;/h1&gt;" style="ellipse;whiteSpace=wrap;html=1;fontFamily=Helvetica;" parent="1" vertex="1">
                    <mxGeometry x="280.43" y="550" width="280" height="70" as="geometry"/>
                </mxCell>
                <mxCell id="37" style="edgeStyle=none;html=1;entryX=0.5;entryY=0;entryDx=0;entryDy=0;fontFamily=Helvetica;" parent="1" source="27" target="36" edge="1">
                    <mxGeometry relative="1" as="geometry"/>
                </mxCell>
                <mxCell id="38" style="edgeStyle=none;html=1;fontFamily=Helvetica;" parent="1" source="39" target="40" edge="1">
                    <mxGeometry relative="1" as="geometry"/>
                </mxCell>
                <mxCell id="39" value="int resultado=0;" style="rounded=0;whiteSpace=wrap;html=1;fontFamily=Helvetica;" parent="1" vertex="1">
                    <mxGeometry x="670" y="340" width="120" height="30" as="geometry"/>
                </mxCell>
                <mxCell id="40" value="resultado=A-B" style="rounded=0;whiteSpace=wrap;html=1;fontFamily=Helvetica;" parent="1" vertex="1">
                    <mxGeometry x="670" y="390" width="120" height="30" as="geometry"/>
                </mxCell>
                <mxCell id="42" style="edgeStyle=none;html=1;fontFamily=Helvetica;" parent="1" source="43" target="44" edge="1">
                    <mxGeometry relative="1" as="geometry"/>
                </mxCell>
                <mxCell id="43" value="int resultado=0;" style="rounded=0;whiteSpace=wrap;html=1;fontFamily=Helvetica;" parent="1" vertex="1">
                    <mxGeometry x="670" y="520" width="120" height="30" as="geometry"/>
                </mxCell>
                <mxCell id="44" value="resultado=A*B" style="rounded=0;whiteSpace=wrap;html=1;fontFamily=Helvetica;" parent="1" vertex="1">
                    <mxGeometry x="670" y="575" width="120" height="30" as="geometry"/>
                </mxCell>
            </root>
        </mxGraphModel>
    </diagram>
</mxfile>